<?xml version="1.0" standalone="no"?>
<!DOCTYPE svg PUBLIC "-//W3C//DTD SVG 20010904//EN"
 "http://www.w3.org/TR/2001/REC-SVG-20010904/DTD/svg10.dtd">
<svg version="1.0" xmlns="http://www.w3.org/2000/svg"
 width="256.000000pt" height="256.000000pt" viewBox="0 0 256.000000 256.000000"
 preserveAspectRatio="xMidYMid meet">
<metadata>
Created by potrace 1.14, written by Peter Selinger 2001-2017
</metadata>
<g transform="translate(0.000000,256.000000) scale(0.100000,-0.100000)"
fill="#000000" stroke="none">
<path d="M304 2186 c-67 -30 -64 5 -64 -678 l0 -618 -120 -152 -120 -151 0
-73 c0 -40 4 -84 10 -98 22 -59 -41 -56 1258 -56 654 0 1204 3 1222 6 49 10
70 52 70 145 l0 76 -120 151 -120 152 0 620 0 620 -29 32 -29 33 -964 2 c-797
2 -968 0 -994 -11z m1874 -648 l2 -508 -900 0 -900 0 0 503 c0 277 3 507 7
510 3 4 407 6 897 5 l891 -3 3 -507z m-658 -1013 l0 -65 -240 0 -240 0 0 65 0
65 240 0 240 0 0 -65z"/>
<path d="M1237 1512 c-48 -141 -87 -260 -87 -264 0 -5 17 -8 39 -8 l39 0 31
88 c47 133 151 435 151 438 0 2 -19 4 -42 4 l-43 0 -88 -258z"/>
<path d="M873 1621 c-188 -127 -188 -119 -5 -244 75 -51 142 -96 147 -100 7
-4 9 10 5 41 -5 45 -7 48 -95 109 -94 67 -104 77 -83 86 7 2 51 31 98 63 l85
59 -5 41 -5 42 -142 -97z"/>
<path d="M1530 1676 l0 -46 95 -62 c52 -35 93 -67 92 -72 -2 -5 -43 -36 -92
-70 -87 -59 -90 -62 -93 -103 -2 -24 0 -43 5 -43 4 1 69 43 143 94 185 127
185 120 -5 249 l-145 98 0 -45z"/>
</g>
</svg>
